<?xml version="1.0" encoding="utf-8"?>
<!-- Generator: Adobe Illustrator 23.0.2, SVG Export Plug-In . SVG Version: 6.00 Build 0)  -->
<svg version="1.1" id="Layer_1" xmlns="http://www.w3.org/2000/svg" xmlns:xlink="http://www.w3.org/1999/xlink" x="0px" y="0px"
	 viewBox="0 0 70 70" style="enable-background:new 0 0 70 70;" xml:space="preserve">
<style type="text/css">
	.st0{opacity:0.7;fill:none;enable-background:new    ;}
	.st1{fill:#52218A;}
	.st2{fill:#6C33AF;}
	.st3{fill:#854CC7;}
	.st4{fill:#B179F1;}
	.st5{opacity:0.25;}
	.st6{fill-rule:evenodd;clip-rule:evenodd;fill:url(#SVGID_1_);}
</style>
<rect class="st0" width="70" height="70"/>
<g>
	<path class="st1" d="M17.789,49.714c-0.602,0.516-1.444,0.65-2.177,0.344l-3.818-1.591c-0.783-0.326-1.294-1.092-1.294-1.94V24.104
		c0-0.849,0.51-1.614,1.294-1.94l3.818-1.591c0.732-0.305,1.574-0.172,2.177,0.344l0.857,0.735c-0.77-0.55-1.839,0-1.839,0.947
		v25.434c0,0.946,1.069,1.496,1.839,0.946L17.789,49.714z"/>
	<g>
		<path class="st2" d="M11.794,48.467c-0.783-0.327-1.294-1.092-1.294-1.94v-0.175c0,1.112,1.369,1.639,2.115,0.814l32.57-36.025
			c0.944-0.944,2.382-1.189,3.585-0.609l10.395,5.005c1.092,0.525,1.785,1.63,1.785,2.841v0.121c0-1.679-1.952-2.603-3.251-1.539
			L18.646,48.979l-0.857,0.735c-0.602,0.516-1.444,0.65-2.177,0.344L11.794,48.467z"/>
	</g>
	<g>
		<path class="st3" d="M11.794,22.164c-0.783,0.326-1.294,1.092-1.294,1.94v0.175c0-1.111,1.369-1.639,2.115-0.814l32.57,36.024
			c0.944,0.944,2.382,1.189,3.585,0.609l10.395-5.005c1.092-0.525,1.785-1.63,1.785-2.841v-0.121c0,1.68-1.952,2.604-3.251,1.539
			L18.646,21.652l-0.857-0.735c-0.602-0.516-1.444-0.65-2.177-0.344L11.794,22.164z"/>
	</g>
	<g>
		<path class="st4" d="M48.771,60.1c-1.204,0.579-2.642,0.334-3.586-0.61c1.164,1.164,3.153,0.34,3.153-1.306V12.447
			c0-1.646-1.989-2.47-3.153-1.306c0.944-0.944,2.382-1.189,3.586-0.61l10.393,4.998c1.092,0.525,1.786,1.63,1.786,2.842v33.89
			c0,1.212-0.694,2.316-1.787,2.842L48.771,60.1z"/>
	</g>
	<g class="st5">
		
			<linearGradient id="SVGID_1_" gradientUnits="userSpaceOnUse" x1="35.726" y1="154.2202" x2="35.726" y2="204.4109" gradientTransform="matrix(1 0 0 1 0 -144)">
			<stop  offset="0" style="stop-color:#FFFFFF"/>
			<stop  offset="1" style="stop-color:#FFFFFF;stop-opacity:0"/>
		</linearGradient>
		<path class="st6" d="M46.704,60.331c0.68,0.156,1.408,0.086,2.067-0.231l10.393-4.998c1.092-0.525,1.787-1.63,1.787-2.842V18.37
			c0-1.212-0.694-2.316-1.787-2.842L48.77,10.531c-0.752-0.362-1.596-0.402-2.353-0.15c-0.455,0.151-0.878,0.407-1.232,0.761
			L28.43,29.673l-9.784-8.022l-0.857-0.735c-0.527-0.452-1.238-0.61-1.897-0.438c-0.094,0.025-0.188,0.056-0.279,0.094l-3.818,1.591
			c-0.734,0.306-1.229,0.998-1.288,1.782c-0.004,0.052-0.006,0.105-0.006,0.158v22.422c0,0.053,0.002,0.106,0.006,0.158
			c0.059,0.784,0.553,1.476,1.288,1.782l3.818,1.591c0.092,0.038,0.185,0.069,0.279,0.094c0.66,0.172,1.37,0.014,1.897-0.438
			l0.857-0.735l9.784-8.022l16.755,18.532C45.612,59.917,46.141,60.201,46.704,60.331z M48.338,24.635l-13.027,10.68l13.027,10.68
			V24.635z M16.806,28.101l6.522,7.214l-6.522,7.214V28.101z"/>
	</g>
</g>
</svg>
